<?xml version="1.0" encoding="UTF-8"?><svg id="a" xmlns="http://www.w3.org/2000/svg" xmlns:xlink="http://www.w3.org/1999/xlink" viewBox="0 0 981.15 300.14"><defs><style>.d{fill:url(#c);}.e{fill:url(#b);}.f{fill:#003148;}</style><linearGradient id="b" x1="229.48" y1="97.26" x2="108.31" y2="27.3" gradientTransform="matrix(1, 0, 0, 1, 0, 0)" gradientUnits="userSpaceOnUse"><stop offset="0" stop-color="#a7fda8"/><stop offset="1" stop-color="#02c6d3"/></linearGradient><linearGradient id="c" x1="252.57" y1="261.16" x2="-30.31" y2="97.84" xlink:href="#b"/></defs><g><rect class="e" x="107.73" y="28.3" width="122.33" height="67.96"/><polygon class="d" points="94.14 130.24 94.14 0 26.18 0 26.18 198.2 162.1 198.2 162.1 232.18 26.18 232.18 26.18 300.14 230.06 300.14 230.06 130.24 94.14 130.24"/></g><g><path class="f" d="M280.62,8.63h21.39V62.38h2.48c1.3-5.19,3.92-9.37,7.87-12.55,3.95-3.18,8.58-4.77,13.88-4.77,10.84,0,18.86,4.1,24.05,12.29,5.19,8.19,7.78,20.19,7.78,35.98s-2.59,27.79-7.78,35.98c-5.19,8.19-13.2,12.29-24.05,12.29-5.3,0-9.93-1.59-13.88-4.77-3.95-3.18-6.57-7.37-7.87-12.55h-2.48v15.21h-21.39V8.63Zm37.48,115.28c5.54,0,9.84-1.71,12.91-5.13,3.06-3.42,4.6-8.25,4.6-14.5v-21.92c0-6.25-1.53-11.08-4.6-14.5-3.07-3.42-7.37-5.13-12.91-5.13-4.83,0-8.72,1.21-11.67,3.62-2.95,2.42-4.42,5.81-4.42,10.17v33.59c0,4.36,1.47,7.75,4.42,10.17,2.95,2.42,6.84,3.62,11.67,3.62Z"/><path class="f" d="M431.61,124.09h-2.48c-3.54,11.67-11.02,17.51-22.45,17.51-8.25,0-14.59-2.8-19.01-8.4-4.42-5.6-6.63-13.64-6.63-24.13V47.18h21.39v58.48c0,12.17,4.48,18.25,13.44,18.25,4.36,0,8.07-1.3,11.14-3.9,3.06-2.6,4.6-6.2,4.6-10.81V47.18h21.39v92.3h-21.39v-15.39Z"/><path class="f" d="M509.59,141.59c-7.66,0-14.38-1.39-20.16-4.15-5.78-2.77-10.85-6.92-15.21-12.46l13.08-12.73c2.94,4.13,6.25,7.25,9.9,9.37,3.65,2.12,7.9,3.18,12.73,3.18,8.96,0,13.44-3.77,13.44-11.32,0-2.95-.74-5.27-2.21-6.98-1.48-1.71-3.98-2.86-7.51-3.45l-8.66-1.59c-9.67-1.77-16.68-4.77-21.04-9.02-4.36-4.24-6.54-10.43-6.54-18.57,0-9.66,2.83-16.89,8.49-21.66,5.66-4.77,13.67-7.16,24.05-7.16,7.19,0,13.41,1.18,18.65,3.54,5.24,2.36,9.81,5.84,13.7,10.43l-12.55,12.55c-2.36-2.95-5.22-5.3-8.58-7.07-3.36-1.77-7.1-2.65-11.23-2.65-8.25,0-12.38,3.71-12.38,11.14,0,3.07,.82,5.39,2.48,6.98,1.65,1.59,4.24,2.68,7.78,3.27l8.84,1.59c9.66,1.77,16.59,4.75,20.78,8.93,4.18,4.19,6.28,10.05,6.28,17.59,0,9.55-2.95,16.97-8.84,22.28-5.9,5.3-14.32,7.96-25.28,7.96Z"/><path class="f" d="M576.95,32.68c-4.48,0-7.72-.97-9.72-2.92-2.01-1.94-3.01-4.57-3.01-7.87v-3.54c0-3.3,1-5.92,3.01-7.87,2-1.95,5.24-2.92,9.72-2.92s7.72,.97,9.72,2.92c2,1.94,3.01,4.57,3.01,7.87v3.54c0,3.3-1,5.92-3.01,7.87-2.01,1.95-5.25,2.92-9.72,2.92Zm-10.61,14.5h21.39v92.3h-21.39V47.18Z"/><path class="f" d="M616.2,139.47V47.18h21.39v15.38h2.48c3.65-11.67,11.02-17.5,22.1-17.5,8.25,0,14.61,2.8,19.1,8.4,4.48,5.6,6.72,13.59,6.72,23.96v62.06h-21.39v-58.35c0-12.02-4.48-18.03-13.44-18.03-4.36,0-8.05,1.27-11.05,3.8-3.01,2.54-4.51,6.1-4.51,10.7v61.88h-21.39Z"/><path class="f" d="M750.4,141.59c-6.01,0-11.52-.97-16.53-2.92-5.01-1.95-9.28-4.89-12.82-8.84-3.54-3.95-6.28-8.96-8.22-15.03-1.95-6.07-2.92-13.23-2.92-21.48,0-16.62,3.33-28.82,9.99-36.6,6.66-7.78,16.18-11.67,28.55-11.67s21.89,3.89,28.56,11.67c6.66,7.78,9.99,19.98,9.99,36.6v5.13h-54.64v6.01c0,6.13,1.71,10.96,5.13,14.5,3.42,3.54,8.13,5.3,14.15,5.3,5.07,0,9.34-1.09,12.82-3.27,3.48-2.18,6.45-5.33,8.93-9.46l11.67,12.2c-3.42,5.42-8.02,9.76-13.79,13-5.78,3.24-12.73,4.86-20.86,4.86Zm-1.95-80.1c-10.73,0-16.09,6.37-16.09,19.1v4.6h32.18v-4.6c0-12.73-5.37-19.1-16.09-19.1Z"/><path class="f" d="M838.1,141.59c-7.66,0-14.38-1.39-20.16-4.15-5.78-2.77-10.85-6.92-15.21-12.46l13.08-12.73c2.94,4.13,6.25,7.25,9.9,9.37,3.65,2.12,7.9,3.18,12.73,3.18,8.96,0,13.44-3.77,13.44-11.32,0-2.95-.74-5.27-2.21-6.98-1.48-1.71-3.98-2.86-7.51-3.45l-8.66-1.59c-9.67-1.77-16.68-4.77-21.04-9.02-4.36-4.24-6.54-10.43-6.54-18.57,0-9.66,2.83-16.89,8.49-21.66,5.66-4.77,13.67-7.16,24.05-7.16,7.19,0,13.41,1.18,18.65,3.54,5.24,2.36,9.81,5.84,13.7,10.43l-12.55,12.55c-2.36-2.95-5.22-5.3-8.58-7.07-3.36-1.77-7.1-2.65-11.23-2.65-8.25,0-12.38,3.71-12.38,11.14,0,3.07,.82,5.39,2.48,6.98,1.65,1.59,4.24,2.68,7.78,3.27l8.84,1.59c9.66,1.77,16.59,4.75,20.78,8.93,4.18,4.19,6.28,10.05,6.28,17.59,0,9.55-2.95,16.97-8.84,22.28-5.9,5.3-14.32,7.96-25.28,7.96Z"/><path class="f" d="M921.38,141.59c-7.66,0-14.38-1.39-20.16-4.15-5.78-2.77-10.85-6.92-15.21-12.46l13.08-12.73c2.94,4.13,6.25,7.25,9.9,9.37,3.65,2.12,7.9,3.18,12.73,3.18,8.96,0,13.44-3.77,13.44-11.32,0-2.95-.74-5.27-2.21-6.98-1.48-1.71-3.98-2.86-7.51-3.45l-8.66-1.59c-9.67-1.77-16.68-4.77-21.04-9.02-4.36-4.24-6.54-10.43-6.54-18.57,0-9.66,2.83-16.89,8.49-21.66,5.66-4.77,13.67-7.16,24.05-7.16,7.19,0,13.41,1.18,18.65,3.54,5.24,2.36,9.81,5.84,13.7,10.43l-12.55,12.55c-2.36-2.95-5.22-5.3-8.58-7.07-3.36-1.77-7.1-2.65-11.23-2.65-8.25,0-12.38,3.71-12.38,11.14,0,3.07,.82,5.39,2.48,6.98,1.65,1.59,4.24,2.68,7.78,3.27l8.84,1.59c9.66,1.77,16.59,4.75,20.78,8.93,4.18,4.19,6.28,10.05,6.28,17.59,0,9.55-2.95,16.97-8.84,22.28-5.9,5.3-14.32,7.96-25.28,7.96Z"/><path class="f" d="M314.24,292.57c-7.43,0-13.79-1.51-19.07-4.53-5.28-3.02-9.78-7.2-13.49-12.54l9.23-7.66c3.13,4.41,6.53,7.78,10.19,10.1,3.66,2.32,8.04,3.48,13.15,3.48s9.37-1.31,12.45-3.92c3.07-2.61,4.61-6.36,4.61-11.23,0-3.94-.99-7.14-2.96-9.58-1.98-2.44-5.63-4.12-10.97-5.05l-6.79-1.22c-8.71-1.62-15.18-4.35-19.41-8.18-4.24-3.83-6.36-9.63-6.36-17.41,0-4.53,.7-8.44,2.09-11.75,1.39-3.31,3.37-6.03,5.92-8.18,2.55-2.15,5.6-3.71,9.14-4.7,3.54-.99,7.4-1.48,11.58-1.48,6.73,0,12.39,1.19,16.98,3.57,4.58,2.38,8.56,5.83,11.93,10.36l-8.53,7.84c-1.97-2.79-4.59-5.25-7.84-7.4-3.25-2.15-7.43-3.22-12.54-3.22-10.56,0-15.84,4.82-15.84,14.45,0,4.41,1.13,7.63,3.39,9.66,2.26,2.03,5.95,3.51,11.06,4.44l6.79,1.22c9.17,1.63,15.67,4.47,19.5,8.53,3.83,4.06,5.75,9.58,5.75,16.54,0,8.71-2.52,15.53-7.57,20.46-5.05,4.94-12.51,7.4-22.37,7.4Z"/><path class="f" d="M401.64,292.57c-5.22,0-10.1-.87-14.63-2.61-4.53-1.74-8.42-4.53-11.67-8.36-3.25-3.83-5.81-8.71-7.66-14.63-1.86-5.92-2.79-13.06-2.79-21.42s.93-15.5,2.79-21.42c1.86-5.92,4.41-10.8,7.66-14.63,3.25-3.83,7.14-6.62,11.67-8.36,4.53-1.74,9.4-2.61,14.63-2.61s10.1,.87,14.63,2.61c4.53,1.74,8.41,4.53,11.67,8.36,3.25,3.83,5.8,8.71,7.66,14.63,1.86,5.92,2.79,13.06,2.79,21.42s-.93,15.5-2.79,21.42c-1.86,5.92-4.41,10.79-7.66,14.63-3.25,3.83-7.14,6.62-11.67,8.36s-9.4,2.61-14.63,2.61Zm0-11.67c7.2,0,12.74-2.16,16.63-6.47,3.89-4.31,5.83-10.91,5.83-19.78v-18.2c0-8.87-1.95-15.46-5.83-19.77-3.89-4.31-9.43-6.47-16.63-6.47s-12.74,2.16-16.63,6.47c-3.89,4.31-5.83,10.91-5.83,19.77v18.2c0,8.87,1.94,15.46,5.83,19.78,3.89,4.31,9.43,6.47,16.63,6.47Z"/><path class="f" d="M477.56,290.48c-4.76,0-8.21-1.07-10.36-3.22-2.15-2.15-3.22-5.6-3.22-10.36v-115.26h13.23v117.18h11.32v11.67h-10.97Z"/><path class="f" d="M561.83,275.86h-1.74c-1.74,5.57-4.44,9.75-8.1,12.54-3.66,2.79-8.62,4.18-14.89,4.18-8.01,0-14.31-2.73-18.89-8.18-4.59-5.45-6.88-13.87-6.88-25.25v-58.5h13.23v57.63c0,7.2,1.48,12.71,4.44,16.54s7.51,5.75,13.67,5.75c5.34,0,9.86-1.62,13.58-4.88,3.71-3.25,5.57-7.84,5.57-13.76v-61.29h13.23v89.84h-13.23v-14.63Z"/><path class="f" d="M624.85,290.48c-4.76,0-8.21-1.07-10.36-3.22-2.15-2.15-3.22-5.6-3.22-10.36v-64.6h-13.23v-11.67h7.84c2.67,0,4.44-.67,5.31-2,.87-1.33,1.31-3.34,1.31-6.01v-16.72h12.01v24.72h17.41v11.67h-17.41v66.51h16.54v11.67h-16.19Z"/><path class="f" d="M673.95,178.88c-5.46,0-8.18-2.38-8.18-7.14v-2.79c0-4.76,2.73-7.14,8.18-7.14s8.18,2.38,8.18,7.14v2.79c0,4.76-2.73,7.14-8.18,7.14Zm-6.62,21.76h13.23v89.84h-13.23v-89.84Z"/><path class="f" d="M742.9,292.57c-5.22,0-10.1-.87-14.63-2.61-4.53-1.74-8.42-4.53-11.67-8.36-3.25-3.83-5.81-8.71-7.66-14.63-1.86-5.92-2.79-13.06-2.79-21.42s.93-15.5,2.79-21.42c1.86-5.92,4.41-10.8,7.66-14.63,3.25-3.83,7.14-6.62,11.67-8.36,4.53-1.74,9.4-2.61,14.63-2.61s10.1,.87,14.63,2.61c4.53,1.74,8.41,4.53,11.67,8.36,3.25,3.83,5.8,8.71,7.66,14.63,1.86,5.92,2.79,13.06,2.79,21.42s-.93,15.5-2.79,21.42c-1.86,5.92-4.41,10.79-7.66,14.63-3.25,3.83-7.14,6.62-11.67,8.36s-9.4,2.61-14.63,2.61Zm0-11.67c7.2,0,12.74-2.16,16.63-6.47,3.89-4.31,5.83-10.91,5.83-19.78v-18.2c0-8.87-1.95-15.46-5.83-19.77-3.89-4.31-9.43-6.47-16.63-6.47s-12.74,2.16-16.63,6.47c-3.89,4.31-5.83,10.91-5.83,19.77v18.2c0,8.87,1.94,15.46,5.83,19.78,3.89,4.31,9.43,6.47,16.63,6.47Z"/><path class="f" d="M805.23,290.48v-89.84h13.23v14.63h1.74c1.74-5.57,4.44-9.75,8.1-12.54,3.66-2.79,8.62-4.18,14.89-4.18,8.01,0,14.3,2.73,18.89,8.18,4.58,5.46,6.88,13.87,6.88,25.25v58.5h-13.23v-57.63c0-7.2-1.48-12.71-4.44-16.54-2.96-3.83-7.52-5.75-13.67-5.75-5.34,0-9.87,1.63-13.58,4.88-3.72,3.25-5.57,7.84-5.57,13.76v61.29h-13.23Z"/><path class="f" d="M924.67,292.57c-7.43,0-13.79-1.51-19.07-4.53-5.28-3.02-9.78-7.2-13.49-12.54l9.23-7.66c3.13,4.41,6.53,7.78,10.19,10.1,3.66,2.32,8.04,3.48,13.15,3.48s9.37-1.31,12.45-3.92c3.07-2.61,4.61-6.36,4.61-11.23,0-3.94-.99-7.14-2.96-9.58-1.98-2.44-5.63-4.12-10.97-5.05l-6.79-1.22c-8.71-1.62-15.18-4.35-19.41-8.18-4.24-3.83-6.36-9.63-6.36-17.41,0-4.53,.7-8.44,2.09-11.75,1.39-3.31,3.37-6.03,5.92-8.18,2.55-2.15,5.6-3.71,9.14-4.7,3.54-.99,7.4-1.48,11.58-1.48,6.73,0,12.39,1.19,16.98,3.57,4.58,2.38,8.56,5.83,11.93,10.36l-8.53,7.84c-1.97-2.79-4.59-5.25-7.84-7.4-3.25-2.15-7.43-3.22-12.54-3.22-10.56,0-15.84,4.82-15.84,14.45,0,4.41,1.13,7.63,3.39,9.66,2.26,2.03,5.95,3.51,11.06,4.44l6.79,1.22c9.17,1.63,15.67,4.47,19.5,8.53,3.83,4.06,5.75,9.58,5.75,16.54,0,8.71-2.52,15.53-7.57,20.46-5.05,4.94-12.51,7.4-22.37,7.4Z"/></g></svg>