<?xml version="1.0"?>
<svg width="23.999999999999996" height="23.999999999999996" xmlns="http://www.w3.org/2000/svg" xmlns:svg="http://www.w3.org/2000/svg">
 <g class="layer">
  <title>Layer 1</title>
  <path d="m17.93,5.28l-0.95,0a4.31,4.31 0 0 0 -4.21,-3.44l-1.72,0a4.31,4.31 0 0 0 -4.21,3.44l-0.95,0a4.31,4.31 0 0 0 -4.3,4.3l0,8.59a4.31,4.31 0 0 0 4.3,4.3l12.03,0a4.31,4.31 0 0 0 4.3,-4.3l0,-8.59a4.31,4.31 0 0 0 -4.3,-4.3zm-6.87,-1.72l1.72,0a2.58,2.58 0 0 1 2.42,1.72l-6.57,0a2.58,2.58 0 0 1 2.42,-1.72zm-5.16,3.44l12.03,0a2.58,2.58 0 0 1 2.58,2.58l0,2.58l-17.19,0l0,-2.58a2.58,2.58 0 0 1 2.58,-2.58zm12.03,13.75l-12.03,0a2.58,2.58 0 0 1 -2.58,-2.58l0,-4.3l7.73,0l0,0.86a0.86,0.86 0 0 0 1.72,0l0,-0.86l7.73,0l0,4.3a2.58,2.58 0 0 1 -2.58,2.58z" fill="#1967d2" id="svg_1"/>
 </g>
</svg>